# xmcd
#
# Track frame offsets: 
#        150
#        9617
#        23317
#        33065
#        48702
#        60222
#        76222
#        89665
#        102347
#        116125
#        127835
#        140025
#        149672
#        163842
#        175957
#        187480
#        198627
#        208590
#        219845
#        233412
#        244452
#        262792
#        273420
#        283667
#        301500
#        311747
#        323047
#        333305
#
# Disc length: 4598 seconds
#
# Revision: 3
# Processed by: cddbd v1.5.2PL0 Copyright (c) Steve Scherf et al.
# Submitted via: ExactAudioCopyFreeDBPlugin 1.0
#
DISCID=9311f41c
DTITLE=Burl Ives - Nashville Years - Disc 1
DYEAR=1900
DGENRE=Country
TTITLE0=A Little Bitty Tear
TTITLE1=The Long Black Veil
TTITLE2=Shanghied
TTITLE3=The Almighty Dollar Bill
TTITLE4=Forty Hour Week
TTITLE5=Royal Telephone
TTITLE6=Delia
TTITLE7=Oh, My Side
TTITLE8=Lenora, Let Your Hair Hang Down
TTITLE9=Mocking Bird Hill
TTITLE10=I Walk The Line
TTITLE11=Drink To Me Only With Thine Eyes
TTITLE12=Mama Don't Want No Peas, No Rice
TTITLE13=Empty Saddles
TTITLE14=The Oregon Trail
TTITLE15=Home On The Range
TTITLE16=When The Bloom Is On The Sage
TTITLE17=My Adobe Hacienda
TTITLE18=Cowboy's Dream
TTITLE19=Mexicali Rose
TTITLE20=The Last Roundup
TTITLE21=O Bury Me Not On The Lone Prairie
TTITLE22=Jingle, Jangle, Jingle
TTITLE23=Cool Water
TTITLE24=Tumbling Tumbleweeds
TTITLE25=Holding Hands For Joe
TTITLE26=Sixteen Fathoms Down
TTITLE27=What You Gonna Do Leroy
EXTD=
EXTT0=
EXTT1=
EXTT2=
EXTT3=
EXTT4=
EXTT5=
EXTT6=
EXTT7=
EXTT8=
EXTT9=
EXTT10=
EXTT11=
EXTT12=
EXTT13=
EXTT14=
EXTT15=
EXTT16=
EXTT17=
EXTT18=
EXTT19=
EXTT20=
EXTT21=
EXTT22=
EXTT23=
EXTT24=
EXTT25=
EXTT26=
EXTT27=
PLAYORDER=
